#!OML:ASF H:\Terrain\Patient Classification 1\Animal1\Tuesday\Animal1.ASF
:FULLY-SPECIFIED
:DEGREES
1708
root 4.67745 15.0131 -15.5623 -180.177 -175.359 -177.061
lowerback 0.614822 -0.799318 0.88121
upperback 0.789856 -1.06432 0.233202
thorax 0.451975 -0.528345 -0.252792
lowerneck 1.82497 2.6739 -7.62385
upperneck 7.06122 3.22763 6.3764
head 1.7032 1.53716 3.45326
rclavicle -4.47266e-015 1.03368e-014
rhumerus -30.9403 1.44777 -88.3023
rradius 12.6421
rwrist -26.7827
rhand -11.0507 22.7586
rfingers 7.12502
rthumb 14.9717 -6.68025
lclavicle -4.47266e-015 1.03368e-014
lhumerus -34.8417 22.924 76.6604
lradius 7.41914
lwrist -26.0381
lhand 21.8067 26.6698
lfingers 7.12502
lthumb 46.2143 49.6746
rfemur -28.463 4.16962 22.7889
rtibia 59.0871
rfoot -31.6337 -31.279
rtoes 27.0076
lfemur -26.5744 7.78608 -28.3732
ltibia 54.1389
lfoot -30.9056 24.7226
ltoes 19.2462
1709
root 4.66269 15.0099 -15.5536 -180.116 -175.382 -177.098
lowerback 0.620663 -0.80852 0.790052
upperback 0.788031 -1.07679 0.244703
thorax 0.448579 -0.535103 -0.189859
lowerneck 1.79525 2.71834 -7.56276
upperneck 7.01411 3.29427 6.30552
head 1.68953 1.57149 3.41637
rclavicle -1.87852e-014 3.18055e-015
rhumerus -30.9548 1.26512 -88.2006
rradius 12.7205
rwrist -26.793
rhand -10.9074 22.2333
rfingers 7.12502
rthumb 15.1097 -7.19514
lclavicle -1.87852e-014 3.18055e-015
lhumerus -34.8848 22.8679 76.6666
lradius 7.44185
lwrist -25.9731
lhand 23.8207 27.7112
lfingers 7.12502
lthumb 48.0763 49.8883
rfemur -28.5176 3.84146 22.9022
rtibia 59.0314
rfoot -30.6215 -31.7589
rtoes 25.1169
lfemur -26.6983 8.09325 -28.2839
ltibia 54.2687
lfoot -31.006 24.5088
ltoes 18.7937
1710
root 4.65034 15.0043 -15.5431 -180.025 -175.39 -177.176
lowerback 0.551294 -0.809191 0.738692
upperback 0.861731 -1.07919 0.280804
thorax 0.564478 -0.536174 -0.12598
lowerneck 1.40668 2.69941 -7.43542
upperneck 7.14294 3.30147 6.1309
head 1.8049 1.5793 3.34331
rclavicle 4.17448e-015 4.77083e-015
rhumerus -30.834 1.41169 -88.2184
rradius 12.7465
rwrist -27.0963
rhand -10.9613 22.2221
rfingers 7.12502
rthumb 15.0578 -7.21028
lclavicle 4.17448e-015 4.77083e-015
lhumerus -34.8316 22.8595 76.7707
lradius 7.5051
lwrist -25.8603
lhand 30.0568 30.8802
lfingers 7.12502
lthumb 53.758 49.8805
rfemur -28.6036 3.48765 23.0326
rtibia 59.0394
rfoot -30.2368 -31.5689
rtoes 24.7227
lfemur -26.8356 8.33362 -28.1587
ltibia 54.3896
lfoot -31.1314 24.1911
ltoes 19.3452
1711
root 4.63835 14.9965 -15.5307 -179.891 -175.467 -177.163
lowerback 0.439057 -0.788782 0.6501
upperback 0.878563 -1.05314 0.256342
thorax 0.64591 -0.523339 -0.103304
lowerneck 1.03582 2.62759 -7.40979
upperneck 7.35312 3.22531 6.13094
head 1.94716 1.54522 3.35197
rclavicle 1.11816e-014 -3.97569e-015
rhumerus -30.778 1.31168 -88.2027
rradius 12.6278
rwrist -27.3904
rhand -11.1877 22.8865
rfingers 7.12502
rthumb 14.8396 -6.56213
lclavicle 1.11816e-014 -3.97569e-015
lhumerus -34.7155 22.7131 76.9051
lradius 7.60761
lwrist -26.0826
lhand 23.5286 27.2791
lfingers 7.12502
lthumb 47.8069 49.5815
rfemur -28.7171 3.08362 23.0574
rtibia 59.0911
rfoot -30.5739 -31.5679
rtoes 23.6191
lfemur -27.0071 8.47205 -28.1582
ltibia 54.5141
lfoot -31.0345 24.2063
ltoes 19.114
1712
root 4.62821 14.9939 -15.5207 -179.8 -175.603 -177.031
lowerback 0.449114 -0.799751 0.500213
upperback 0.79861 -1.06688 0.172805
thorax 0.559481 -0.531166 -0.103925
lowerneck 1.07462 2.61443 -7.47598
upperneck 7.39867 3.19699 6.26291
head 1.95508 1.53125 3.41051
rclavicle 5.44173e-015 1.98785e-015
rhumerus -30.9258 0.661218 -87.9331
rradius 12.528
rwrist -26.9873
rhand -11.8042 23.1477
rfingers 7.12502
rthumb 14.2457 -6.34372
lclavicle 5.44173e-015 1.98785e-015
lhumerus -34.8511 22.5156 76.8876
lradius 7.71775
lwrist -26.1246
lhand 22.0276 26.2657
lfingers 7.12502
lthumb 46.419 49.1837
rfemur -28.8332 2.74926 22.934
rtibia 59.1756
rfoot -30.8409 -31.5932
rtoes 23.1793
lfemur -27.1374 8.48911 -28.3028
ltibia 54.6229
lfoot -30.7193 24.605
ltoes 17.5933
1713
root 4.61749 14.9937 -15.5131 -179.62 -175.614 -177.303
lowerback 0.468251 -0.806477 0.7197
upperback 0.684364 -1.07504 0.239698
thorax 0.429097 -0.534819 -0.157013
lowerneck 1.21223 2.68785 -7.51157
upperneck 7.40123 3.28288 6.31758
head 1.92333 1.57237 3.43313
rclavicle 3.65267e-015 -1.59028e-015
rhumerus -31.1399 0.226663 -87.6936
rradius 12.588
rwrist -26.4975
rhand -12.8586 22.8615
rfingers 7.12502
rthumb 13.2295 -6.69869
lclavicle 3.65267e-015 -1.59028e-015
lhumerus -35.0505 22.4469 76.8629
lradius 7.66514
lwrist -25.7075
lhand 22.2654 26.1427
lfingers 7.12502
lthumb 46.6393 48.9662
rfemur -29.0039 2.69426 23.2283
rtibia 59.2311
rfoot -30.9266 -31.2032
rtoes 23.8945
lfemur -27.3899 8.60859 -28.004
ltibia 54.7523
lfoot -30.4379 24.9554
ltoes 16.1352
